<?xml version="1.0" standalone="no"?>
<!DOCTYPE svg PUBLIC "-//W3C//DTD SVG 20010904//EN"
 "http://www.w3.org/TR/2001/REC-SVG-20010904/DTD/svg10.dtd">
<svg version="1.0" xmlns="http://www.w3.org/2000/svg"
 width="700.000000pt" height="700.000000pt" viewBox="0 0 700.000000 700.000000"
 preserveAspectRatio="xMidYMid meet">
<metadata>
Created by potrace 1.14, written by Peter Selinger 2001-2017
</metadata>
<g transform="translate(0.000000,700.000000) scale(0.100000,-0.100000)"
fill="#000000" stroke="none">
<path d="M65 5208 c-4 -810 -8 -1968 -9 -2572 l-1 -1099 1038 -669 c571 -367
1040 -668 1042 -668 3 0 5 362 5 805 0 443 -2 805 -4 805 -3 0 -879 -495 -967
-546 -11 -6 -312 537 -303 545 5 5 294 170 642 367 l632 359 -2 1580 -3 1580
-1024 492 c-563 271 -1027 493 -1031 493 -4 0 -11 -663 -15 -1472z"/>
<path d="M3505 6186 l-1020 -492 -3 -1483 -2 -1483 62 35 c35 19 99 55 143 80
l79 45 2 124 c3 224 65 380 213 529 149 149 301 207 520 196 133 -6 200 -24
317 -86 101 -53 123 -69 107 -79 -7 -4 -154 -88 -328 -187 -173 -98 -315 -182
-315 -186 0 -5 317 -569 324 -576 1 -1 146 79 322 179 175 99 325 183 332 185
18 7 16 -149 -4 -245 -31 -154 -92 -268 -200 -377 -164 -165 -412 -232 -650
-175 -101 24 -170 54 -257 113 l-68 46 -47 -28 c-26 -16 -161 -92 -299 -171
l-253 -142 0 -904 c0 -497 3 -904 6 -904 4 0 477 303 1052 672 l1045 673 -7
830 c-3 457 -8 1548 -11 2425 -6 1663 -9 1881 -29 1879 -6 -1 -470 -223 -1031
-493z"/>
<path d="M4907 5508 c-4 -645 -10 -1803 -13 -2573 l-7 -1400 1033 -665 c568
-366 1039 -669 1047 -673 11 -7 13 440 13 2741 l0 2749 -1026 494 c-565 272
-1030 495 -1034 497 -4 1 -10 -525 -13 -1170z"/>
</g>
</svg>
