<?xml version="1.0" standalone="no"?>
<!DOCTYPE svg PUBLIC "-//W3C//DTD SVG 20010904//EN"
 "http://www.w3.org/TR/2001/REC-SVG-20010904/DTD/svg10.dtd">
<svg version="1.0" xmlns="http://www.w3.org/2000/svg"
 width="700.000000pt" height="700.000000pt" viewBox="0 0 700.000000 700.000000"
 preserveAspectRatio="xMidYMid meet">
<metadata>
Created by potrace 1.11, written by Peter Selinger 2001-2013
</metadata>
<g transform="translate(0.000000,700.000000) scale(0.100000,-0.100000)"
fill="#000000" stroke="none">
<path d="M3513 6241 l-1033 -496 0 -1477 c0 -813 3 -1478 6 -1478 3 0 66 34
140 76 l134 75 0 118 c0 223 64 386 210 531 97 97 179 146 305 181 192 53 427
11 607 -109 21 -13 38 -28 38 -32 0 -4 -46 -34 -102 -66 -149 -83 -542 -307
-546 -309 -3 -2 315 -566 324 -575 7 -6 31 7 377 204 153 87 281 155 284 152
15 -14 3 -204 -16 -281 -35 -135 -93 -237 -191 -335 -136 -137 -285 -200 -478
-200 -51 0 -125 7 -165 16 -84 19 -219 79 -285 128 l-47 34 -295 -167 -295
-167 -3 -907 c-2 -762 0 -907 11 -900 8 4 479 307 1047 673 l1032 665 -7 1550
c-4 853 -11 2010 -14 2571 l-6 1022 -1032 -497z"/>
<path d="M66 6288 c-3 -244 -8 -1111 -11 -1928 -3 -817 -8 -1773 -11 -2125
l-6 -640 1044 -673 c575 -369 1048 -672 1052 -672 3 0 6 362 6 805 0 443 -3
805 -7 805 -5 0 -226 -124 -492 -275 l-485 -274 -154 271 c-84 149 -150 274
-145 278 4 5 179 105 388 223 209 118 495 280 635 359 l255 145 0 1577 0 1578
-1028 494 c-565 272 -1029 494 -1031 494 -2 0 -6 -199 -10 -442z"/>
<path d="M4909 6727 c-5 -15 -26 -5143 -21 -5145 4 -1 475 -304 1047 -672
l1040 -670 3 2742 c2 2186 -1 2745 -10 2754 -11 9 -333 165 -1885 910 -95 46
-173 82 -174 81z"/>
</g>
</svg>
